HIERARCHY
ROOT SpineBase
{
  OFFSET 0.000000 0.000000 0.000000
  CHANNELS 6 Xposition Yposition Zposition Zrotation Xrotation Yrotation
  JOINT SpineMid
  {
    OFFSET 0.000000 28.612462 0.000000
    CHANNELS 3 Zrotation Xrotation Yrotation
    JOINT SpineShoulder
    {
      OFFSET -0.029605 21.297770 -0.641591
      CHANNELS 3 Zrotation Xrotation Yrotation
      JOINT Neck
      {
        OFFSET -0.031710 7.046000 -0.503694
        CHANNELS 3 Zrotation Xrotation Yrotation
        JOINT Head
        {
          OFFSET -3.773812 12.601144 0.471932
          CHANNELS 3 Zrotation Xrotation Yrotation
          End Site
          {
            OFFSET 0 0 0
          }
        }
      }
      JOINT ShoulderLeft
      {
        OFFSET -14.307438 -4.525225 5.962029
        CHANNELS 3 Zrotation Xrotation Yrotation
        JOINT ElbowLeft
        {
          OFFSET -1.378378 -25.171284 1.362854
          CHANNELS 3 Zrotation Xrotation Yrotation
          JOINT WristLeft
          {
            OFFSET -0.068719 -22.821160 -0.843048
            CHANNELS 3 Zrotation Xrotation Yrotation
            JOINT HandLeft
            {
              OFFSET 1.137525 -6.323491 -1.640147
              CHANNELS 3 Zrotation Xrotation Yrotation
              JOINT HandTipLeft
              {
                OFFSET 1.275480 -6.529291 -1.546256
                CHANNELS 3 Zrotation Xrotation Yrotation
                End Site
                {
                  OFFSET 0 0 0
                }
              }
              JOINT ThumbLeft
              {
                OFFSET -2.523991 0.197061 -0.836468
                CHANNELS 3 Zrotation Xrotation Yrotation
                End Site
                {
                  OFFSET 0 0 0
                }
              }
            }
          }
        }
      }
      JOINT ShoulderRight
      {
        OFFSET 10.519242 -2.605191 -11.420933
        CHANNELS 3 Zrotation Xrotation Yrotation
        JOINT ElbowRight
        {
          OFFSET 7.923440 -18.723073 -2.392050
          CHANNELS 3 Zrotation Xrotation Yrotation
          JOINT WristRight
          {
            OFFSET -21.584457 -8.341813 -11.402069
            CHANNELS 3 Zrotation Xrotation Yrotation
            JOINT HandRight
            {
              OFFSET -7.711068 -1.762824 -1.906075
              CHANNELS 3 Zrotation Xrotation Yrotation
              JOINT HandTipRight
              {
                OFFSET -5.209275 -1.459184 -0.692560
                CHANNELS 3 Zrotation Xrotation Yrotation
                End Site
                {
                  OFFSET 0 0 0
                }
              }
              JOINT ThumbRight
              {
                OFFSET 1.104406 2.515055 -2.477304
                CHANNELS 3 Zrotation Xrotation Yrotation
                End Site
                {
                  OFFSET 0 0 0
                }
              }
            }
          }
        }
      }
    }
  }
  JOINT HipLeft
  {
    OFFSET -5.514438 0.201913 0.074205
    CHANNELS 3 Zrotation Xrotation Yrotation
    JOINT KneeLeft
    {
      OFFSET 6.696396 -30.556806 6.909384
      CHANNELS 3 Zrotation Xrotation Yrotation
      JOINT AnkleLeft
      {
        OFFSET 4.844032 -31.282204 6.980162
        CHANNELS 3 Zrotation Xrotation Yrotation
        JOINT FootLeft
        {
          OFFSET -5.313327 -3.660744 -10.868983
          CHANNELS 3 Zrotation Xrotation Yrotation
          End Site
          {
            OFFSET 0 0 0
          }
        }
      }
    }
  }
  JOINT HipRight
  {
    OFFSET 5.238022 1.486409 -6.601897
    CHANNELS 3 Zrotation Xrotation Yrotation
    JOINT KneeRight
    {
      OFFSET 8.907402 -28.006489 1.464963
      CHANNELS 3 Zrotation Xrotation Yrotation
      JOINT AnkleRight
      {
        OFFSET 4.686272 -32.696966 7.871008
        CHANNELS 3 Zrotation Xrotation Yrotation
        JOINT FootRight
        {
          OFFSET -5.497403 -3.588178 -10.948791
          CHANNELS 3 Zrotation Xrotation Yrotation
          End Site
          {
            OFFSET 0 0 0
          }
        }
      }
    }
  }
}
MOTION
Frames: 12
Frame Time: 0.033333
13.527027 69.920904 317.438125 -0.000000 0.000000 31.835759 0.000000 0.000000 -31.835759 -0.000000 0.000000 0.000000 -0.000000 0.000000 0.000000 0.000000 0.000000 0.000000 -0.000000 0.000000 0.000000 -0.000000 0.000000 0.000000 -0.000000 0.000000 0.000000 -0.000000 0.000000 0.000000 0.000000 0.000000 0.000000 0.000000 0.000000 0.000000 -0.000000 0.000000 0.000000 -0.000000 0.000000 0.000000 -0.000000 0.000000 0.000000 -0.000000 0.000000 0.000000 0.000000 0.000000 0.000000 0.000000 0.000000 0.000000 0.000000 0.000000 -31.835759 -0.000000 0.000000 0.000000 -0.000000 0.000000 0.000000 0.000000 0.000000 0.000000 0.000000 0.000000 -31.835759 -0.000000 0.000000 0.000000 -0.000000 0.000000 0.000000 0.000000 0.000000 0.000000
13.501435 69.888654 317.364232 -0.074264 0.089019 31.840409 0.016127 -0.114802 -31.840335 -0.000000 0.000000 0.000000 -0.000000 0.000000 0.000000 0.000000 0.000000 0.000000 -0.000000 0.000000 0.000000 -0.000000 0.000000 0.000000 -1.599116 -1.332968 0.157264 -0.520951 -1.784709 -0.312964 0.000000 0.000000 0.000000 0.000000 0.000000 0.000000 -0.000000 0.000000 0.000000 -0.000000 0.000000 0.000000 0.294191 0.110231 -0.808789 -2.798176 -0.141213 1.878093 0.000000 0.000000 0.000000 0.000000 0.000000 0.000000 0.016127 -0.114802 -31.840335 -0.000000 0.000000 0.000000 -0.000000 0.000000 0.000000 0.000000 0.000000 0.000000 0.016127 -0.114802 -31.840335 -0.000000 0.000000 0.000000 -0.000000 0.000000 0.000000 0.000000 0.000000 0.000000
13.465227 69.864271 317.314171 -0.153901 0.151967 31.844533 0.050556 -0.210294 -31.844236 -0.000000 0.000000 0.000000 -0.000000 0.000000 0.000000 0.000000 0.000000 0.000000 -0.292795 -0.884646 0.030314 0.690577 2.484544 -0.065957 -3.339939 -4.055786 0.192026 -0.860046 -3.220642 -0.632996 0.000000 0.000000 0.000000 0.000000 0.000000 0.000000 -0.000000 0.000000 0.000000 -0.366892 -0.281441 1.222748 0.691440 0.502810 -2.611719 -5.000489 -0.250383 2.977652 0.000000 0.000000 0.000000 0.000000 0.000000 0.000000 0.050556 -0.210294 -31.844236 -0.000000 0.000000 0.000000 -0.525848 0.986562 0.129670 0.000000 0.000000 0.000000 0.050556 -0.210294 -31.844236 -0.000000 0.000000 0.000000 -0.000000 0.000000 0.000000 0.000000 0.000000 0.000000
13.418403 69.847757 317.287940 -0.238950 0.188939 31.847883 0.103282 -0.286579 -31.847231 -0.000000 0.000000 0.000000 -0.000000 0.000000 0.000000 0.000000 0.000000 0.000000 -0.483020 -1.488538 0.049044 1.092199 3.968690 -0.120305 -4.626750 -5.833756 0.165888 -1.016502 -4.316012 -0.933677 0.000000 0.000000 0.000000 0.000000 0.000000 0.000000 -0.000000 0.000000 0.000000 -1.192845 -0.084494 1.801399 1.293302 0.427072 -3.571401 -6.660131 -0.262960 3.363362 0.000000 0.000000 0.000000 0.000000 0.000000 0.000000 0.103282 -0.286579 -31.847231 -0.000000 0.000000 0.000000 -0.515922 0.962970 0.134205 0.000000 0.000000 0.000000 0.103282 -0.286579 -31.847231 -0.000000 0.000000 0.000000 -0.000000 0.000000 0.000000 0.000000 0.000000 0.000000
13.360964 69.839110 317.285541 -0.329461 0.199996 31.850277 0.174320 -0.343737 -31.849179 -0.000000 0.000000 0.000000 0.360454 0.746502 0.207473 0.000000 0.000000 0.000000 -0.704225 -2.206086 0.069036 1.530814 5.604189 -0.192595 -5.646636 -7.418868 0.088274 -0.987349 -5.082451 -1.195988 0.000000 0.000000 0.000000 0.000000 0.000000 0.000000 -0.000000 0.000000 0.000000 -2.455788 0.329378 2.370855 2.087532 0.139581 -4.337843 -7.808694 -0.136037 3.080668 0.000000 0.000000 0.000000 0.000000 0.000000 0.000000 0.174320 -0.343737 -31.849179 -0.000000 0.000000 0.000000 -0.000000 0.000000 0.000000 0.000000 0.000000 0.000000 0.174320 -0.343737 -31.849179 -0.000000 0.000000 0.000000 -0.000000 0.000000 0.000000 0.000000 0.000000 0.000000
13.292910 69.838331 317.306973 -0.425488 0.185164 31.851593 0.263709 -0.381817 -31.850027 -0.000000 0.000000 0.000000 0.339815 0.923959 0.260937 0.000000 0.000000 0.000000 -0.958236 -3.043479 0.089191 2.006706 7.383210 -0.285889 -6.398074 -8.799838 -0.018709 -0.763646 -5.526506 -1.407860 0.000000 0.000000 0.000000 0.000000 0.000000 0.000000 -0.000000 0.000000 0.000000 -4.167177 0.956878 2.945646 3.078478 -0.359635 -4.923452 -8.455232 0.158167 2.156633 0.000000 0.000000 0.000000 0.000000 0.000000 0.000000 0.263709 -0.381817 -31.850027 -0.000000 0.000000 0.000000 -0.000000 0.000000 0.000000 0.000000 0.000000 0.000000 0.263709 -0.381817 -31.850027 -0.000000 0.000000 0.000000 -0.000000 0.000000 0.000000 0.000000 0.000000 0.000000
13.209398 69.835869 317.372644 -0.532997 0.144733 31.736438 0.377179 -0.403449 -31.734437 -0.000000 0.000000 0.000000 0.330838 1.047688 0.297996 0.000000 0.000000 0.000000 -1.348500 -4.214570 0.107972 2.624483 9.547354 -0.420652 -6.813020 -10.275330 -0.210108 -0.002108 -5.234141 -1.532444 0.000000 0.000000 0.000000 0.000000 0.000000 0.000000 -0.000000 0.000000 0.000000 -5.700111 1.495053 3.490337 2.595550 -0.454452 -5.079471 -5.205562 -0.272974 1.702200 0.000000 0.000000 0.000000 0.000000 0.000000 0.000000 0.377179 -0.403449 -31.734437 -0.000000 0.000000 0.000000 1.174721 -2.258029 -0.201800 0.000000 0.000000 0.000000 0.377179 -0.403449 -31.734437 -0.000000 0.000000 0.000000 -0.000000 0.000000 0.000000 0.000000 0.000000 0.000000
13.108226 69.852330 317.461639 -0.654207 0.054110 31.804529 0.527470 -0.390760 -31.802422 -0.000000 0.000000 0.000000 0.239629 1.271431 0.368767 0.000000 0.000000 0.000000 -1.710953 -5.457732 0.124468 3.165475 11.853771 -0.574672 -6.841735 -10.937427 -0.247756 0.812823 -5.807995 -1.849088 0.000000 0.000000 0.000000 0.000000 0.000000 0.000000 -0.000000 0.000000 0.000000 -7.972364 2.466531 3.886526 3.436973 -1.264818 -4.903310 -4.776948 0.118032 0.013363 0.000000 0.000000 0.000000 0.000000 0.000000 0.000000 0.527470 -0.390760 -31.802422 -0.000000 0.000000 0.000000 2.035278 -3.903443 -0.350913 0.000000 0.000000 0.000000 0.527470 -0.390760 -31.802422 -0.000000 0.000000 0.000000 -0.000000 0.000000 0.000000 0.000000 0.000000 0.000000
13.013145 69.879344 317.545007 -0.752153 -0.034487 31.924124 0.656634 -0.368458 -31.922239 -0.000000 0.000000 0.000000 0.094492 1.583608 0.469086 0.000000 0.000000 0.000000 -2.088653 -6.792373 0.134757 3.772520 14.301379 -0.767545 -6.497512 -11.163466 -0.216530 1.383853 -5.626168 -1.864674 0.000000 0.000000 0.000000 0.000000 0.000000 0.000000 0.784967 -0.396995 -0.264923 -12.119890 4.078726 5.094590 5.268599 -2.145694 -6.305959 -4.864243 1.294576 -3.430657 0.000000 0.000000 0.000000 0.000000 0.000000 0.000000 0.656634 -0.368458 -31.922239 -0.000000 0.000000 0.000000 2.558824 -4.970015 -0.321120 0.000000 0.000000 0.000000 1.205763 -0.965780 -31.943799 -0.781992 0.216294 0.029430 -0.000000 0.000000 0.000000 0.000000 0.000000 0.000000
12.929771 69.916201 317.620557 -0.825467 -0.121758 32.279706 0.762922 -0.337900 -32.278334 -0.000000 0.000000 0.000000 -0.128500 1.769567 0.536658 0.000000 0.000000 0.000000 -2.340873 -7.820778 0.141456 4.367582 16.205782 -0.971703 -6.515983 -11.714731 -0.262913 2.307384 -4.373365 -1.749161 0.000000 0.000000 0.000000 0.000000 0.000000 0.000000 1.379193 -0.197776 -0.256281 -17.568394 5.768094 6.146748 9.815755 -4.503250 -6.810661 -6.358386 2.906266 -6.861944 0.000000 0.000000 0.000000 0.000000 0.000000 0.000000 1.631738 0.173357 -31.976050 -0.466281 -0.893765 -0.304674 1.421478 -2.908385 0.041524 0.000000 0.000000 0.000000 1.375226 -1.017468 -32.303708 -0.880686 0.247120 0.034516 -0.000000 0.000000 0.000000 0.000000 0.000000 0.000000
12.855840 69.961481 317.676728 -0.887163 -0.198183 32.559074 0.854392 -0.310410 -32.558294 -0.000000 0.000000 0.000000 -0.548721 1.622207 0.514634 0.000000 0.000000 0.000000 -2.454079 -8.555232 0.152083 4.805817 17.569753 -1.149781 -6.919041 -12.626285 -0.391439 2.368062 -3.763701 -1.643664 0.000000 0.000000 0.000000 0.000000 0.000000 0.000000 1.535092 0.472574 -0.002460 -23.317003 7.330331 7.060049 13.645993 -6.783612 -7.179827 -7.322353 4.397638 -10.046640 0.000000 0.000000 0.000000 0.000000 0.000000 0.000000 1.901059 0.463387 -32.187439 0.342564 -1.499035 -0.219257 2.047831 -5.380702 -0.387591 0.000000 0.000000 0.000000 1.550226 -1.008608 -32.567997 -0.962236 0.213778 0.019507 -0.000000 0.000000 0.000000 0.000000 0.000000 0.000000
12.799480 70.002454 317.736518 -0.898502 -0.248763 32.067021 0.893484 -0.266223 -32.066896 -0.000000 0.000000 0.000000 -1.460522 1.182716 0.425449 0.000000 0.000000 0.000000 -2.612387 -8.917899 0.143329 5.076763 17.872458 -1.223382 -7.429747 -13.502999 -0.577894 3.063534 -1.382971 -1.345893 0.000000 0.000000 0.000000 0.000000 0.000000 0.000000 0.871327 1.381469 0.460632 -29.588526 9.121543 8.265671 17.378475 -9.232105 -7.610426 -8.474021 6.315254 -13.566049 0.000000 0.000000 0.000000 0.000000 0.000000 0.000000 2.050537 0.728459 -31.649057 0.444765 -1.891243 -0.265653 2.776468 -6.664820 -0.780913 0.000000 0.000000 0.000000 1.769674 -0.736883 -31.986443 -0.992443 -0.064988 -0.073346 -0.000000 0.000000 0.000000 0.000000 0.000000 0.000000
